<?xml version="1.0" standalone="no"?>
<!DOCTYPE svg PUBLIC "-//W3C//DTD SVG 20010904//EN"
 "http://www.w3.org/TR/2001/REC-SVG-20010904/DTD/svg10.dtd">
<svg version="1.0" xmlns="http://www.w3.org/2000/svg"
 width="234.000000pt" height="209.000000pt" viewBox="0 0 234.000000 209.000000"
 preserveAspectRatio="xMidYMid meet">

<g transform="translate(0.000000,209.000000) scale(0.100000,-0.100000)"
fill="#000000" stroke="none">
<path d="M895 2023 c-321 -71 -546 -223 -690 -466 -107 -179 -139 -302 -139
-532 0 -156 3 -177 28 -260 97 -322 322 -571 617 -685 483 -185 1031 19 1263
470 50 98 93 224 101 302 5 49 4 47 -15 -25 -43 -169 -165 -369 -293 -480
-134 -117 -263 -186 -430 -229 -105 -27 -323 -30 -436 -4 -351 79 -626 347
-723 705 -30 111 -30 353 0 463 102 371 381 648 736 728 63 14 72 18 41 18
-22 0 -49 -2 -60 -5z"/>
<path d="M1825 2016 c-11 -8 -16 -22 -13 -41 3 -26 7 -30 32 -30 16 0 30 6 32
13 1 7 0 8 -3 2 -2 -5 -9 -10 -13 -10 -11 0 -8 53 3 61 5 3 2 9 -6 12 -8 3
-23 0 -32 -7z"/>
<path d="M1602 1983 c-83 -62 -188 -137 -208 -150 -17 -11 -16 -12 9 -12 38
-1 93 29 154 83 28 25 54 46 57 46 3 0 6 -13 6 -30 0 -37 31 -70 66 -70 19 0
25 -4 20 -15 -9 -23 4 -44 36 -61 43 -22 68 -10 68 32 0 31 -2 34 -30 34 -42
0 -60 38 -36 74 35 55 8 106 -56 106 -24 0 -50 -11 -86 -37z"/>
<path d="M1946 2005 c-27 -27 -29 -55 -7 -86 12 -15 21 -32 21 -37 0 -16 -36
-42 -58 -42 -18 0 -22 -6 -22 -34 0 -27 5 -36 21 -41 29 -9 73 24 77 58 3 20
9 27 26 27 30 0 66 40 66 73 0 15 2 27 5 27 3 0 24 -17 46 -39 54 -51 132 -93
167 -89 25 3 24 5 -28 36 -30 18 -92 61 -138 97 -69 55 -89 65 -122 65 -21 0
-45 -7 -54 -15z"/>
<path d="M1579 1893 c-8 -9 -41 -37 -74 -61 -57 -43 -59 -45 -26 -38 48 9 120
65 121 94 0 26 -3 27 -21 5z"/>
<path d="M1822 1735 c3 -100 1 -175 -4 -175 -37 0 -98 57 -98 92 0 14 6 16 28
12 35 -7 66 21 41 37 -34 22 -99 -20 -99 -65 0 -28 34 -82 59 -96 25 -13 27
-33 5 -51 -48 -40 -39 -114 20 -172 22 -22 36 -37 29 -34 -6 4 -22 -6 -37 -24
-40 -48 -34 -110 16 -166 19 -20 19 -23 4 -38 -25 -25 -20 -79 10 -115 24 -27
25 -33 12 -48 -8 -9 -18 -26 -22 -37 -4 -12 4 -7 21 14 26 30 31 33 52 22 12
-7 26 -22 31 -34 8 -20 9 -20 9 -3 1 11 -6 27 -15 37 -15 17 -15 20 10 49 31
38 34 81 6 120 -19 26 -19 28 -2 32 10 3 26 22 36 43 22 46 16 98 -15 131
l-22 23 31 35 c40 46 49 93 27 140 -9 19 -23 40 -30 46 -10 8 -4 19 26 49 45
44 53 95 21 124 -22 20 -86 23 -79 5 2 -8 19 -13 41 -12 33 1 36 -1 36 -26 0
-32 -38 -74 -82 -89 l-31 -11 7 180 6 180 -26 0 -27 0 5 -175z m8 -332 l-1
-78 -24 28 c-29 32 -32 72 -9 105 26 38 34 25 34 -55z m64 45 c22 -31 20 -52
-9 -85 l-24 -28 -1 68 c0 70 9 82 34 45z m1 -249 c7 -21 -18 -74 -38 -82 -23
-8 -55 20 -62 54 -6 24 -2 36 14 52 l21 21 1 -34 c1 -19 5 -48 9 -65 6 -22 8
-10 7 42 l-2 72 22 -21 c13 -12 25 -29 28 -39z m-31 -181 c12 -17 13 -25 3
-42 -11 -19 -12 -18 -19 19 -6 40 -6 40 -5 -8 2 -48 2 -48 -15 -27 -21 26 -23
51 -6 68 17 17 25 15 42 -10z"/>
<path d="M2086 1894 c-3 -8 -6 -17 -6 -19 0 -11 101 -75 125 -80 l30 -6 -25
18 c-14 10 -46 37 -71 61 -38 34 -48 39 -53 26z"/>
<path d="M1568 1814 c-48 -45 -48 -55 0 -30 38 19 68 54 56 66 -5 5 -27 -9
-56 -36z"/>
<path d="M2065 1850 c-9 -14 20 -47 58 -67 43 -22 41 -11 -7 36 -29 28 -46 39
-51 31z"/>
<path d="M1620 1795 c-21 -22 -28 -35 -19 -35 16 0 69 46 69 60 0 18 -16 10
-50 -25z"/>
<path d="M2019 1811 c12 -22 60 -55 69 -47 8 9 -49 66 -65 66 -10 0 -11 -5 -4
-19z"/>
<path d="M640 1465 c0 -102 3 -125 14 -125 11 0 16 15 18 53 3 48 5 52 30 55
25 3 27 1 33 -52 5 -38 12 -56 21 -56 12 0 14 22 12 123 -3 100 -6 122 -18
122 -11 0 -15 -12 -15 -50 0 -49 -1 -50 -32 -53 l-33 -3 0 55 c0 43 -3 56 -15
56 -13 0 -15 -21 -15 -125z"/>
<path d="M882 1574 c-20 -14 -22 -23 -22 -109 0 -106 10 -125 64 -125 51 0 61
20 61 126 0 81 -2 95 -20 108 -26 20 -55 20 -83 0z m63 -109 c0 -89 0 -90 -25
-90 -24 0 -25 2 -28 79 -3 94 1 108 30 104 22 -3 23 -7 23 -93z"/>
<path d="M1077 1583 c-3 -5 -4 -18 -2 -29 2 -10 4 -63 4 -117 1 -74 4 -98 14
-95 6 3 14 24 17 48 5 41 8 45 39 51 18 4 37 13 42 21 14 22 10 94 -6 108 -19
16 -100 25 -108 13z m77 -29 c10 -4 16 -18 16 -40 0 -27 -5 -37 -22 -43 -32
-12 -38 -6 -38 38 0 49 9 58 44 45z"/>
<path d="M1290 1466 l0 -126 55 0 c41 0 55 4 55 14 0 10 -13 16 -37 18 -36 3
-38 5 -38 38 0 31 3 35 28 38 38 5 36 32 -4 32 -29 0 -30 2 -27 38 3 35 5 37
41 40 56 5 41 26 -21 30 l-52 3 0 -125z"/>
<path d="M692 1299 c-120 -35 -263 -344 -265 -574 -1 -106 19 -178 63 -220 25
-24 35 -27 77 -23 26 3 77 18 112 33 50 23 66 26 69 16 2 -7 13 -22 24 -33 29
-29 114 -21 193 17 33 16 64 29 68 29 5 1 10 -46 11 -104 4 -158 43 -230 124
-230 70 0 120 54 151 165 22 80 14 128 -45 261 -4 8 20 16 67 24 81 14 83 13
93 -51 7 -45 53 -101 96 -119 55 -23 157 -8 236 34 98 52 132 81 118 103 -24
38 -38 37 -108 -5 -38 -23 -92 -46 -122 -53 -46 -10 -56 -10 -78 5 -36 23 -33
34 19 56 121 52 184 148 144 222 -13 25 -67 48 -112 48 -50 0 -117 -40 -152
-91 -17 -24 -45 -51 -61 -59 -30 -15 -194 -28 -194 -15 0 5 15 26 33 49 150
184 237 393 193 460 -35 54 -126 51 -191 -6 -72 -63 -157 -295 -184 -503 -10
-76 -13 -82 -53 -117 -49 -43 -110 -73 -132 -65 -27 11 -19 95 19 217 19 62
33 116 29 121 -9 15 -71 10 -92 -8 -18 -16 -42 -81 -71 -188 -10 -38 -17 -45
-90 -83 -96 -52 -116 -53 -130 -9 -15 46 -3 81 72 200 139 222 177 310 177
408 0 50 -3 60 -26 78 -29 23 -34 24 -82 10z m8 -119 c0 -46 -36 -144 -92
-252 -68 -131 -81 -131 -53 -1 16 77 44 163 70 214 37 73 75 92 75 39z m678
18 c19 -19 14 -54 -14 -111 -30 -60 -152 -247 -161 -247 -10 0 7 118 26 172
60 172 106 229 149 186z m280 -380 c21 -21 14 -63 -15 -90 -57 -53 -103 -63
-103 -23 0 79 78 153 118 113z m-454 -173 c25 -48 36 -241 17 -298 -14 -41
-38 -54 -60 -32 -13 13 -16 41 -16 158 1 215 15 256 59 172z"/>
<path d="M884 1088 c-30 -14 -46 -52 -35 -82 11 -28 29 -36 82 -36 48 0 79 28
79 69 0 51 -68 78 -126 49z"/>
<path d="M2081 924 c0 -11 3 -14 6 -6 3 7 2 16 -1 19 -3 4 -6 -2 -5 -13z"/>
</g>
</svg>
