<?xml version="1.0" standalone="no"?>
<!DOCTYPE svg PUBLIC "-//W3C//DTD SVG 20010904//EN"
 "http://www.w3.org/TR/2001/REC-SVG-20010904/DTD/svg10.dtd">
<svg version="1.0" xmlns="http://www.w3.org/2000/svg"
 width="1890.000000pt" height="1417.000000pt" viewBox="0 0 1890.000000 1417.000000"
 preserveAspectRatio="xMidYMid meet">

<g transform="translate(0.000000,1417.000000) scale(0.100000,-0.100000)"
fill="#000000" stroke="none">
<path d="M5170 12276 c0 -8 7 -16 15 -20 9 -3 15 -18 15 -35 0 -16 5 -33 10
-36 6 -3 10 -17 10 -30 0 -13 5 -27 10 -30 6 -3 10 -19 10 -34 0 -16 7 -34 15
-41 8 -7 15 -25 15 -41 0 -16 5 -29 10 -29 6 0 10 -13 10 -29 0 -17 5 -33 10
-36 6 -3 10 -19 10 -35 0 -16 5 -32 10 -35 6 -3 10 -17 10 -29 0 -13 7 -29 15
-36 8 -7 15 -24 15 -38 0 -23 10 -61 30 -117 4 -11 15 -45 25 -75 10 -30 22
-59 26 -64 5 -6 9 -22 9 -37 0 -15 5 -31 10 -34 6 -3 10 -17 10 -30 0 -13 5
-27 10 -30 6 -3 10 -19 10 -35 0 -16 5 -32 10 -35 6 -3 10 -16 10 -29 0 -12 7
-31 15 -42 8 -10 15 -29 15 -41 0 -12 5 -25 10 -28 6 -3 10 -19 10 -35 0 -16
5 -32 10 -35 6 -3 10 -16 10 -29 0 -12 4 -26 9 -31 6 -6 12 -23 15 -39 3 -16
10 -34 16 -40 5 -5 10 -23 10 -38 0 -15 5 -28 10 -28 6 0 10 -12 10 -28 0 -15
9 -52 21 -82 12 -30 23 -66 26 -80 8 -35 20 -48 67 -71 23 -11 59 -33 81 -49
22 -16 46 -29 54 -30 8 0 24 -9 35 -19 12 -10 37 -27 56 -38 19 -10 53 -30 75
-43 22 -14 58 -34 80 -44 22 -11 49 -27 60 -37 11 -9 39 -25 63 -35 23 -10 42
-21 42 -26 0 -4 8 -8 18 -8 11 0 27 -9 37 -20 10 -11 22 -20 28 -20 5 0 21 -8
35 -18 15 -11 52 -32 82 -47 30 -16 62 -34 70 -41 8 -6 51 -30 95 -54 77 -41
114 -62 183 -102 17 -11 32 -16 32 -11 0 5 -22 22 -50 38 -27 16 -52 35 -54
42 -3 7 -12 13 -21 13 -8 0 -15 4 -15 9 0 5 -9 13 -20 16 -11 3 -20 11 -20 16
0 12 37 12 45 -1 4 -6 13 -5 25 2 15 10 22 10 32 0 10 -10 10 -15 -2 -22 -8
-5 -11 -12 -7 -16 4 -4 15 0 25 10 12 14 14 20 5 23 -7 3 -13 13 -13 24 0 17
8 19 60 19 33 0 60 -4 60 -10 0 -5 18 -15 40 -21 36 -11 55 -29 30 -29 -5 0
-10 -4 -10 -10 0 -5 9 -10 19 -10 11 0 23 5 26 10 3 6 15 10 26 10 25 0 25
-30 -1 -37 -30 -8 -24 -30 11 -37 25 -5 30 -10 27 -28 -2 -13 -9 -22 -17 -20
-7 1 -11 -5 -9 -15 2 -11 12 -18 25 -18 30 0 38 -12 22 -31 -10 -12 -10 -18
-3 -21 6 -2 20 -10 30 -18 18 -13 18 -14 1 -15 -9 0 -25 4 -35 9 -9 5 -28 14
-42 20 -14 6 -38 20 -55 30 -35 23 -45 25 -45 11 0 -5 5 -10 10 -10 6 0 16 -5
23 -10 25 -21 88 -60 97 -60 6 0 10 -4 10 -8 0 -5 12 -15 28 -23 15 -7 44 -24
65 -37 22 -13 60 -35 85 -49 26 -14 49 -29 52 -33 3 -3 25 -17 50 -31 25 -13
59 -33 75 -45 17 -12 58 -36 93 -54 34 -18 65 -36 67 -41 3 -5 23 -16 43 -26
20 -9 51 -27 68 -40 17 -13 36 -23 42 -23 7 0 12 -4 12 -10 0 -5 8 -10 17 -10
9 0 26 -8 37 -19 24 -21 112 -71 126 -71 5 0 21 -11 36 -25 15 -14 32 -25 38
-25 6 -1 23 -11 38 -23 23 -19 27 -32 32 -92 9 -121 18 -180 27 -190 5 -5 9
-27 9 -50 1 -22 7 -51 15 -65 8 -14 14 -39 15 -57 0 -17 5 -35 10 -38 6 -3 10
-19 10 -35 0 -16 5 -32 10 -35 6 -3 10 -17 10 -30 0 -13 5 -27 10 -30 6 -3 10
-15 10 -26 0 -11 11 -40 25 -65 14 -25 25 -52 25 -60 0 -9 8 -28 18 -42 10
-15 22 -34 26 -42 10 -21 56 -100 90 -151 15 -24 52 -69 81 -99 47 -49 53 -62
63 -121 7 -37 12 -91 12 -120 0 -30 5 -70 11 -89 6 -19 14 -60 19 -90 5 -37 8
21 9 181 1 234 1 235 -25 287 -14 29 -30 54 -35 58 -5 3 -9 14 -9 25 0 10 -4
19 -10 19 -5 0 -10 6 -10 14 0 8 -8 31 -19 53 -23 48 -46 106 -62 158 -6 22
-15 48 -20 57 -5 10 -9 29 -9 42 0 14 -4 27 -9 30 -4 3 -11 29 -15 58 -4 29
-11 57 -16 63 -12 15 -20 114 -26 327 l-6 187 -195 193 c-219 216 -207 205
-248 236 -16 13 -82 74 -145 136 -63 61 -180 172 -260 246 -80 74 -207 196
-283 270 -76 74 -146 139 -155 144 -9 5 -58 50 -108 100 -241 239 -380 374
-396 382 -9 5 -106 97 -215 205 -110 108 -205 198 -211 200 -6 2 -87 78 -179
169 -93 91 -222 215 -288 275 -66 61 -147 137 -180 170 -136 135 -308 295
-316 295 -5 0 -9 -6 -9 -14z m1455 -2116 c3 -5 1 -10 -4 -10 -6 0 -11 5 -11
10 0 6 2 10 4 10 3 0 8 -4 11 -10z m61 -41 c19 -22 19 -22 -3 -10 -24 12 -39
31 -25 31 5 0 17 -10 28 -21z m519 -299 c3 -5 -1 -10 -9 -10 -8 0 -18 5 -21
10 -3 6 1 10 9 10 8 0 18 -4 21 -10z"/>
<path d="M13680 12258 c-19 -17 -134 -127 -255 -243 -121 -117 -242 -232 -270
-256 -27 -24 -124 -118 -216 -208 -92 -90 -178 -170 -191 -178 -13 -9 -120
-111 -238 -228 -118 -117 -220 -214 -227 -216 -7 -2 -108 -99 -225 -215 -117
-116 -220 -215 -229 -220 -10 -5 -91 -81 -181 -169 -91 -88 -214 -205 -274
-260 -60 -55 -170 -158 -244 -230 -74 -71 -151 -143 -170 -158 -19 -15 -116
-109 -216 -207 -100 -99 -186 -180 -192 -180 -9 0 -12 -56 -12 -199 0 -123 -4
-202 -10 -206 -5 -3 -10 -33 -10 -65 0 -32 -4 -61 -9 -65 -6 -3 -13 -27 -16
-53 -3 -26 -10 -55 -16 -64 -5 -10 -9 -27 -9 -38 0 -11 -4 -28 -9 -38 -5 -9
-14 -35 -20 -57 -27 -90 -85 -222 -141 -320 l-28 -50 0 -245 c1 -135 4 -220 7
-190 3 30 10 61 14 68 5 7 13 61 18 120 15 180 17 183 87 255 34 36 62 70 62
75 0 6 10 23 23 39 13 15 31 45 40 65 10 20 22 40 27 43 13 8 50 84 50 102 0
7 11 32 25 57 14 25 25 54 25 65 0 11 5 23 10 26 6 3 10 17 10 30 0 13 5 27
10 30 6 3 10 19 10 35 0 16 5 32 10 35 6 3 10 19 10 34 0 16 7 42 15 57 8 16
15 48 15 71 0 23 5 45 10 48 6 3 10 28 10 55 0 27 5 52 10 55 6 3 10 37 10 74
0 61 3 70 28 94 15 15 31 27 35 27 4 0 26 12 48 26 23 14 62 37 87 51 26 14
56 33 67 42 11 10 41 28 68 41 26 13 52 29 58 37 6 7 16 13 21 13 5 0 33 15
61 34 29 18 79 48 112 66 33 17 67 37 75 44 8 7 32 21 53 31 21 11 45 28 54
38 9 9 22 17 29 17 8 0 58 28 112 63 54 34 107 68 118 74 10 7 34 20 51 29 18
9 30 20 27 25 -8 13 -25 11 -43 -5 -27 -23 -171 -95 -171 -86 0 5 19 19 41 31
26 13 45 31 52 50 6 16 17 29 24 29 15 0 17 16 3 25 -15 9 -12 42 4 48 7 3 16
19 19 35 4 18 14 33 26 37 10 3 26 17 35 30 9 14 23 25 31 25 7 0 21 8 31 17
13 13 19 14 22 5 5 -16 29 -16 35 1 4 8 8 8 14 2 4 -6 21 -12 37 -13 16 -2 35
-10 42 -17 16 -16 54 -8 54 11 0 8 5 14 10 14 6 0 10 -7 10 -15 0 -8 7 -15 15
-15 8 0 15 -4 15 -10 0 -5 -6 -10 -14 -10 -7 0 -25 -11 -40 -25 -15 -14 -33
-25 -41 -25 -7 0 -15 -3 -17 -7 -8 -18 -151 -103 -173 -103 -8 0 -15 -4 -15
-10 0 -16 37 -12 44 5 3 8 15 15 26 15 11 0 20 4 20 9 0 5 10 13 23 17 12 3
29 12 37 19 16 14 80 50 195 110 39 20 77 43 86 51 8 8 18 14 21 14 3 0 35 16
70 36 34 20 88 50 118 67 30 17 57 33 60 37 3 4 26 17 52 29 26 11 49 25 53
30 3 6 27 20 53 33 26 12 65 34 87 47 22 14 56 34 75 44 19 11 44 28 56 38 11
10 27 19 36 19 9 0 18 3 20 8 2 4 24 17 49 30 26 12 52 29 59 37 7 8 18 15 25
15 17 0 45 33 45 54 0 10 6 30 14 44 20 40 36 95 36 125 0 15 5 27 10 27 6 0
10 13 10 28 0 15 5 33 10 38 6 6 13 24 16 40 3 16 9 33 15 39 5 5 9 19 9 31 0
13 5 26 10 29 6 3 10 19 10 35 0 16 5 32 10 35 6 3 10 16 10 28 0 12 7 31 15
41 8 11 15 30 15 42 0 13 5 26 10 29 6 3 10 19 10 35 0 16 5 32 10 35 6 3 10
17 10 30 0 13 5 27 10 30 6 3 10 19 10 34 0 15 4 31 9 37 4 5 16 34 26 64 10
30 21 64 25 75 20 56 30 94 30 117 0 14 7 31 15 38 8 7 15 23 15 36 0 12 5 26
10 29 6 3 10 19 10 35 0 16 5 32 10 35 6 3 10 19 10 36 0 16 5 29 10 29 6 0
10 13 10 29 0 16 7 34 15 41 8 7 15 25 15 41 0 15 5 31 10 34 6 3 10 17 10 30
0 13 5 27 10 30 6 3 10 20 10 36 0 17 6 32 15 35 15 6 21 34 8 34 -5 0 -24
-15 -43 -32z m-1450 -2142 c0 -11 -19 -15 -25 -6 -3 5 1 10 9 10 9 0 16 -2 16
-4z m-520 -256 c0 -5 -7 -10 -16 -10 -8 0 -12 5 -9 10 3 6 10 10 16 10 5 0 9
-4 9 -10z"/>
<path d="M7008 11210 c2 -17 8 -33 13 -36 5 -3 9 -18 9 -34 0 -16 5 -32 10
-35 6 -3 10 -18 10 -33 0 -15 7 -40 15 -56 8 -15 15 -39 15 -52 0 -13 5 -24
10 -24 6 0 10 -18 10 -39 0 -22 5 -43 10 -46 6 -3 10 -17 10 -31 0 -13 4 -32
9 -42 5 -9 16 -44 26 -77 9 -33 21 -68 26 -77 5 -10 9 -24 9 -31 0 -16 837
-847 853 -847 5 0 3 7 -4 16 -7 9 -18 24 -24 34 -11 18 -66 93 -89 121 -8 9
-17 26 -20 37 -4 10 -15 27 -26 37 -11 10 -20 23 -20 30 0 6 -12 22 -26 36
-14 13 -35 41 -47 61 -11 21 -24 38 -29 38 -4 0 -8 6 -8 13 -1 6 -24 43 -53
81 -29 38 -56 76 -62 85 -28 47 -100 131 -111 131 -5 0 -3 -5 4 -12 7 -7 12
-19 12 -28 0 -9 9 -25 20 -35 11 -10 20 -22 20 -27 0 -13 -40 11 -40 25 -1 7
-15 21 -33 32 -34 21 -46 50 -28 68 7 7 15 6 26 -3 25 -21 19 13 -8 41 -12 13
-28 35 -35 49 -7 14 -20 37 -30 51 -9 14 -30 46 -46 70 -16 24 -33 46 -37 47
-5 2 -9 9 -9 16 0 7 -16 31 -35 53 -19 23 -35 45 -35 51 0 5 -9 17 -20 27 -11
10 -20 23 -20 30 0 6 -11 22 -25 35 -14 13 -25 29 -25 35 0 7 -9 20 -20 30
-11 10 -20 22 -20 26 0 5 -21 37 -46 71 -25 35 -53 75 -62 90 -22 36 -30 35
-24 -2z"/>
<path d="M11881 11233 c0 -7 -17 -30 -36 -52 -19 -21 -35 -42 -35 -46 0 -5
-11 -23 -25 -41 -14 -18 -25 -37 -25 -42 0 -5 -9 -17 -20 -27 -11 -10 -20 -23
-20 -30 0 -6 -11 -22 -25 -35 -14 -13 -25 -29 -25 -35 0 -7 -9 -20 -20 -30
-11 -10 -20 -22 -20 -27 0 -6 -16 -28 -35 -51 -19 -22 -35 -46 -35 -53 0 -7
-4 -14 -9 -16 -4 -1 -21 -23 -37 -47 -16 -24 -37 -56 -46 -70 -10 -14 -25 -39
-34 -56 -9 -16 -20 -32 -23 -35 -8 -7 -31 -48 -31 -57 0 -4 5 -2 12 5 19 19
35 14 42 -13 7 -27 -16 -58 -52 -69 -11 -4 -23 -13 -26 -21 -3 -8 -10 -15 -16
-15 -7 0 -4 13 6 33 30 58 34 67 28 67 -10 0 -84 -89 -109 -131 -5 -9 -28 -41
-51 -70 -22 -30 -47 -65 -55 -79 -8 -14 -17 -27 -20 -30 -6 -5 -56 -80 -75
-112 -6 -11 -23 -31 -36 -46 -14 -15 -34 -42 -44 -59 -10 -18 -22 -33 -26 -33
-4 0 -8 -6 -8 -13 0 -7 -15 -31 -32 -53 -37 -45 -61 -84 -55 -90 8 -9 847 829
847 847 0 10 5 21 10 24 6 3 10 21 10 38 0 18 7 41 15 51 8 11 15 30 15 42 0
13 5 26 10 29 6 3 10 19 10 35 0 16 5 32 10 35 6 3 10 24 10 46 0 21 5 39 10
39 6 0 10 11 10 24 0 13 7 37 15 52 8 16 15 41 15 56 0 15 5 30 10 33 6 3 10
19 10 34 0 15 5 32 11 38 6 6 9 23 6 39 -2 16 -5 23 -6 17z m-428 -724 c4 -16
3 -18 -9 -8 -16 13 -19 29 -5 29 5 0 11 -9 14 -21z"/>
<path d="M5700 10194 c0 -15 73 -153 92 -174 10 -11 18 -26 18 -35 0 -8 5 -15
10 -15 6 0 10 -6 10 -14 0 -8 10 -27 23 -43 12 -15 29 -41 37 -58 8 -16 19
-37 26 -45 6 -8 24 -39 39 -68 15 -29 31 -54 36 -57 4 -3 18 -27 31 -53 13
-26 29 -53 36 -60 7 -8 21 -33 31 -56 11 -23 29 -50 40 -60 12 -11 21 -27 21
-38 0 -13 7 -18 28 -18 15 0 32 -4 38 -9 5 -6 36 -15 69 -21 33 -6 80 -15 105
-21 25 -5 66 -12 93 -16 26 -3 50 -10 53 -14 3 -5 19 -9 36 -9 18 0 45 -4 62
-10 60 -18 251 -60 278 -60 15 0 30 -4 33 -10 3 -5 19 -10 34 -10 15 0 47 -6
72 -14 72 -22 137 -36 169 -36 16 0 32 -4 35 -10 3 -5 22 -10 41 -10 19 0 42
-4 52 -9 9 -5 44 -15 77 -21 33 -7 78 -16 100 -21 22 -5 63 -14 90 -19 105
-20 141 -27 180 -38 102 -27 124 -32 153 -32 17 0 34 -4 37 -10 3 -5 14 -10
24 -10 15 0 18 7 16 33 -2 17 -3 40 -4 49 -1 17 -16 27 -101 69 -73 36 -289
138 -370 176 -41 19 -83 39 -92 44 -10 5 -25 9 -33 9 -8 0 -15 5 -15 10 0 6
-5 10 -11 10 -6 0 -70 29 -142 64 -73 36 -144 68 -160 71 -15 4 -30 11 -33 16
-3 5 -14 9 -25 9 -10 0 -19 5 -19 10 0 6 -6 10 -13 10 -8 0 -42 14 -78 31
-225 109 -316 153 -334 162 -142 74 -291 147 -301 147 -7 0 -14 3 -16 8 -4 9
-74 42 -91 42 -7 0 -23 9 -37 20 -14 11 -35 20 -47 20 -12 0 -24 4 -28 9 -3 6
-31 22 -63 37 -31 15 -97 47 -145 70 -49 24 -96 44 -105 44 -8 0 -26 10 -39
22 -13 12 -23 17 -23 12z m1093 -551 c15 -3 30 -9 33 -14 3 -5 16 -9 30 -9 13
0 24 -3 24 -8 0 -4 16 -16 35 -26 43 -23 44 -36 4 -65 -26 -19 -38 -22 -77
-16 -74 10 -84 15 -79 36 3 10 -1 24 -9 30 -11 9 -12 15 -2 26 10 13 8 19 -10
33 -28 23 -28 34 1 25 12 -4 34 -9 50 -12z"/>
<path d="M13175 10180 c-10 -11 -26 -20 -36 -20 -10 0 -57 -20 -106 -44 -48
-23 -114 -55 -145 -70 -32 -15 -60 -31 -63 -37 -4 -5 -14 -9 -24 -9 -10 0 -50
-16 -90 -35 -39 -19 -76 -35 -81 -35 -6 0 -10 -4 -10 -10 0 -5 -6 -10 -13 -10
-11 0 -190 -88 -302 -147 -11 -6 -67 -33 -125 -61 -107 -51 -156 -81 -132 -82
7 0 29 7 49 15 50 21 67 19 60 -5 -4 -15 0 -20 14 -20 19 0 19 -1 2 -18 -10
-11 -27 -22 -37 -26 -14 -5 -16 -10 -8 -18 15 -15 -30 -58 -62 -58 -36 0 -106
30 -106 45 0 7 -6 16 -12 18 -8 4 -4 8 10 12 12 4 22 11 22 15 0 5 10 10 22
12 12 2 23 9 26 17 5 16 -21 10 -83 -19 -92 -42 -135 -60 -144 -60 -5 0 -14
-7 -21 -15 -7 -8 -19 -15 -27 -15 -8 0 -65 -25 -128 -55 -62 -30 -118 -55
-124 -55 -6 0 -11 -4 -11 -10 0 -5 -7 -10 -15 -10 -8 0 -23 -4 -33 -9 -9 -5
-62 -30 -117 -56 -55 -26 -154 -73 -220 -105 -66 -31 -139 -66 -163 -76 -53
-22 -72 -47 -72 -96 0 -31 4 -38 19 -38 11 0 22 4 25 9 3 4 27 11 53 14 27 3
77 13 113 22 78 19 139 33 200 44 25 5 81 16 125 26 44 10 95 20 113 22 18 3
35 9 38 14 3 5 23 9 45 9 21 0 39 5 39 10 0 6 17 10 38 10 20 0 69 10 107 21
39 12 90 23 115 26 25 3 49 9 55 14 5 5 22 9 38 9 29 0 62 7 162 35 48 14 81
20 155 31 19 3 44 9 55 14 11 5 38 11 60 14 22 3 60 10 85 16 25 5 72 14 105
20 33 6 64 15 69 21 6 5 23 9 38 9 20 0 28 5 28 17 0 9 8 26 19 37 10 12 31
44 46 71 15 28 30 52 34 55 3 3 16 26 29 52 13 26 27 50 31 53 5 3 21 28 36
57 15 29 33 60 39 68 7 8 20 31 30 50 9 19 30 53 46 75 16 22 29 46 30 53 0 7
8 21 18 32 9 10 30 45 47 77 16 32 35 65 43 75 20 24 -2 31 -23 8z"/>
<path d="M12040 10090 c0 -5 7 -10 15 -10 8 0 15 5 15 10 0 6 -7 10 -15 10 -8
0 -15 -4 -15 -10z"/>
<path d="M12086 10082 c-3 -6 -1 -14 5 -17 15 -10 25 3 12 16 -7 7 -13 7 -17
1z"/>
<path d="M9410 10052 c0 -10 -11 -29 -25 -42 -14 -13 -25 -30 -25 -37 0 -15
-21 -55 -33 -64 -4 -3 -8 -29 -9 -58 0 -39 5 -58 20 -74 19 -21 21 -37 23
-242 l3 -220 -25 -7 c-110 -30 -149 -43 -183 -59 -22 -11 -46 -19 -53 -19 -26
0 -304 -149 -340 -182 -11 -10 -25 -18 -32 -18 -6 0 -21 -9 -33 -20 -24 -22
-112 -70 -128 -70 -6 0 -23 9 -38 19 -41 29 -68 34 -86 16 -31 -31 -14 -94 43
-157 46 -52 96 -45 201 26 58 40 89 56 106 56 8 0 14 5 14 10 0 6 10 10 23 10
12 0 42 11 66 25 23 14 54 25 66 25 13 0 27 5 30 10 3 6 17 10 30 10 13 0 26
4 29 9 4 5 29 12 56 16 44 6 55 4 83 -18 38 -29 107 -156 107 -197 0 -16 5
-32 10 -35 6 -3 10 -48 10 -100 0 -52 4 -97 10 -100 6 -4 10 -60 10 -135 0
-75 -4 -131 -10 -135 -5 -3 -10 -14 -10 -24 0 -10 -7 -32 -16 -49 -13 -28 -21
-32 -54 -32 -32 0 -39 -4 -44 -25 -8 -32 3 -75 19 -75 6 0 20 9 30 20 10 11
31 20 47 20 26 0 28 -3 22 -22 -4 -13 -7 -27 -6 -33 0 -5 1 -52 2 -103 2 -100
16 -132 60 -132 11 0 20 -4 20 -9 0 -5 3 -18 6 -28 6 -17 6 -17 -7 -1 -8 9
-26 22 -41 27 -29 11 -33 6 -30 -39 0 -8 -5 -18 -11 -22 -20 -12 -145 -9 -170
5 -42 23 -67 51 -67 73 0 13 -4 26 -10 29 -6 3 -10 48 -10 100 0 52 -4 97 -10
100 -5 3 -10 35 -10 71 0 41 -4 63 -10 59 -5 -3 -10 -39 -10 -80 0 -41 -4 -77
-10 -80 -5 -3 -10 -44 -10 -90 0 -46 -4 -87 -10 -90 -5 -3 -10 -16 -10 -29 0
-44 -75 -83 -137 -72 -87 15 -93 17 -93 37 0 14 7 19 25 19 18 0 28 9 41 35
20 44 13 70 -19 60 -45 -13 -50 -11 -65 37 -14 44 -14 50 4 84 35 67 90 90
138 59 22 -14 25 -14 41 1 19 20 13 61 -13 81 -20 15 -82 17 -82 3 0 -5 -9
-10 -20 -10 -11 0 -20 -4 -20 -9 0 -15 -41 -24 -53 -12 -8 8 -8 14 1 23 18 18
15 71 -6 94 -21 24 -42 69 -42 93 0 10 -9 26 -20 36 -19 18 -20 17 -20 -1 0
-11 4 -24 9 -30 5 -5 12 -49 14 -99 6 -123 27 -357 34 -375 5 -14 7 -257 3
-262 -1 -2 -3 -26 -5 -55 -2 -55 0 -58 70 -84 64 -23 258 -49 440 -57 111 -6
139 -10 137 -21 -1 -7 2 -68 8 -135 9 -105 25 -887 36 -1730 1 -143 8 -271 13
-285 6 -14 13 -84 15 -156 9 -214 21 -384 29 -391 4 -4 10 -4 14 -1 7 8 19
169 29 392 4 77 10 145 15 151 6 7 12 178 15 380 13 1010 24 1470 39 1754 l2
35 134 6 c240 11 390 34 485 74 29 12 35 18 26 27 -16 16 -15 55 1 61 8 3 9
10 2 23 -13 25 -8 201 11 394 8 85 17 198 20 250 3 52 10 99 15 104 5 6 9 19
9 30 0 18 -1 19 -20 1 -11 -10 -20 -26 -20 -36 0 -24 -21 -69 -42 -93 -12 -13
-18 -36 -18 -68 0 -41 -3 -48 -20 -48 -11 0 -20 3 -20 8 0 12 -52 32 -83 32
-51 0 -84 -61 -52 -94 16 -15 19 -15 41 -1 13 8 33 15 45 15 31 0 76 -36 95
-76 14 -30 15 -41 4 -79 -14 -50 -26 -63 -43 -46 -18 18 -57 13 -57 -7 0 -38
30 -82 56 -82 17 0 24 -6 24 -19 0 -23 -10 -27 -93 -36 -58 -6 -69 -5 -96 14
-43 31 -59 73 -65 166 -14 219 -19 265 -27 265 -5 0 -9 -24 -9 -54 0 -30 -4
-58 -10 -61 -6 -3 -10 -52 -10 -110 0 -58 -4 -107 -10 -110 -5 -3 -10 -16 -10
-29 0 -22 -25 -50 -67 -73 -24 -14 -119 -17 -172 -7 -26 6 -29 8 -16 18 12 8
13 18 6 42 -5 17 -5 37 0 46 10 18 14 232 4 247 -12 20 51 12 70 -9 10 -11 24
-20 31 -20 17 0 28 42 20 75 -5 21 -12 25 -45 25 -34 0 -42 4 -55 32 -9 17
-16 38 -16 48 0 9 -5 21 -11 27 -16 16 4 450 22 468 5 5 9 26 9 46 0 21 4 41
10 44 5 3 18 26 29 50 11 24 36 60 57 80 36 36 40 37 88 30 28 -3 55 -10 60
-16 6 -5 20 -9 32 -9 13 0 26 -4 29 -10 3 -5 15 -10 25 -10 11 0 46 -12 77
-27 32 -14 67 -29 78 -33 43 -16 81 -35 100 -51 11 -10 47 -31 80 -48 88 -46
138 -29 185 61 49 94 1 145 -82 87 -36 -26 -48 -24 -105 14 -27 17 -62 39 -78
47 -16 8 -38 22 -47 29 -41 34 -319 181 -343 181 -6 0 -29 8 -51 19 -34 16
-73 29 -183 59 l-25 7 3 220 c2 201 4 222 22 241 14 15 19 35 19 77 0 31 -3
57 -7 57 -10 0 -33 49 -33 68 0 8 -11 23 -25 34 -14 11 -25 28 -25 39 0 16 -7
19 -40 19 -32 0 -40 -4 -40 -18z m91 -834 c21 -17 39 -36 39 -42 0 -6 7 -24
15 -39 16 -32 9 -56 -23 -79 -23 -16 -44 -53 -35 -62 3 -3 -1 -6 -10 -6 -9 0
-19 5 -22 10 -3 6 -16 10 -28 10 -28 0 -107 73 -107 99 0 34 18 69 39 76 12 3
21 13 21 21 0 9 11 14 31 14 27 0 30 2 19 15 -24 29 19 17 61 -17z m-33 -645
c-2 -88 -6 -108 -18 -108 -12 0 -16 18 -18 94 -3 104 0 121 23 121 13 0 15
-15 13 -107z m-68 -258 c0 -8 -4 -15 -10 -15 -5 0 -10 7 -10 15 0 8 5 15 10
15 6 0 10 -7 10 -15z m120 0 c0 -8 -4 -15 -10 -15 -5 0 -10 7 -10 15 0 8 5 15
10 15 6 0 10 -7 10 -15z m-140 -135 c0 -23 -22 -26 -39 -6 -10 11 -8 15 6 19
31 8 33 7 33 -13z m170 -6 c0 -8 -7 -14 -15 -14 -8 0 -15 9 -15 20 0 13 5 18
15 14 8 -4 15 -12 15 -20z m-122 -104 c4 26 28 26 43 -1 11 -21 11 -21 40 11
35 38 47 34 26 -7 -8 -15 -18 -50 -22 -76 -7 -44 -5 -49 14 -54 11 -3 21 -9
21 -14 0 -17 -34 -9 -57 13 l-24 22 -6 -22 c-7 -27 -23 -29 -23 -2 0 11 -6 20
-13 20 -7 0 -18 -9 -25 -20 -7 -11 -19 -20 -27 -20 -20 0 -19 16 1 24 12 5 14
15 8 53 -3 27 -13 60 -20 75 -21 41 -17 42 24 8 35 -29 37 -29 40 -10z m112
-240 c-20 -13 -40 -13 -40 0 0 6 12 10 28 10 21 0 24 -2 12 -10z m64 -167 c44
-3 73 -10 68 -15 -11 -11 -374 -11 -433 -1 l-44 8 65 6 c98 9 258 10 344 2z
m-106 -104 c-3 -20 0 -33 9 -36 21 -8 15 -33 -8 -33 -15 0 -19 -5 -15 -15 4
-12 -3 -15 -29 -15 -25 0 -33 4 -29 14 3 8 -4 16 -20 20 -27 7 -34 20 -16 31
6 4 8 15 5 26 -10 30 3 39 57 39 l50 0 -4 -31z m-81 -135 c-3 -3 -12 -4 -19
-1 -8 3 -5 6 6 6 11 1 17 -2 13 -5z m51 -376 c-9 -423 -4 -740 13 -953 8 -91
9 -166 3 -215 -8 -67 -11 -75 -31 -78 -17 -3 -24 3 -30 25 -11 40 -10 208 4
418 8 118 10 352 6 683 l-5 502 24 0 23 0 -7 -382z m49 376 c-3 -3 -12 -4 -19
-1 -8 3 -5 6 6 6 11 1 17 -2 13 -5z"/>
<path d="M9410 8011 c0 -6 5 -13 10 -16 6 -3 10 1 10 9 0 9 -4 16 -10 16 -5 0
-10 -4 -10 -9z"/>
<path d="M6905 9949 c8 -12 56 -32 62 -25 4 3 -54 36 -64 36 -2 0 -1 -5 2 -11z"/>
<path d="M6230 9042 c0 -6 57 -63 127 -129 70 -65 186 -175 258 -245 125 -122
156 -142 181 -119 5 5 32 11 59 14 77 7 198 28 220 37 11 5 45 12 75 15 30 4
80 11 110 15 30 5 87 13 125 19 39 5 97 14 130 20 33 5 94 15 135 21 41 7 83
16 92 21 10 5 36 9 58 9 22 0 59 4 82 9 24 6 72 15 108 21 77 14 90 23 67 48
-9 10 -17 26 -17 34 0 17 -30 24 -170 38 -47 5 -148 16 -225 25 -77 9 -187 20
-245 26 -58 5 -154 14 -215 20 -60 6 -146 14 -190 19 -44 4 -89 10 -100 14
-11 3 -65 11 -120 17 -210 22 -283 30 -385 39 -58 5 -117 12 -132 16 -17 4
-28 2 -28 -4z m950 -156 c0 -3 -4 -8 -10 -11 -5 -3 -10 -1 -10 4 0 6 5 11 10
11 6 0 10 -2 10 -4z m-2 -36 c27 -16 32 -26 32 -57 0 -51 -23 -73 -76 -73 -49
0 -74 25 -74 73 0 70 54 96 118 57z"/>
<path d="M12627 9043 c-4 -3 -51 -10 -105 -15 -274 -22 -497 -46 -542 -59 -19
-5 -53 -9 -76 -9 -22 0 -65 -4 -95 -9 -30 -6 -121 -15 -204 -22 -82 -6 -224
-20 -315 -31 -91 -11 -208 -23 -260 -28 -131 -10 -170 -19 -170 -38 0 -8 -8
-24 -17 -34 -23 -25 -10 -34 67 -48 36 -6 84 -15 108 -21 23 -5 60 -9 82 -9
22 0 48 -4 58 -9 19 -11 76 -20 357 -62 77 -11 170 -26 255 -39 30 -5 89 -16
130 -24 41 -9 103 -19 138 -23 34 -3 65 -10 68 -14 16 -26 54 -2 153 94 58 57
135 130 171 163 35 32 107 101 160 151 84 82 92 93 69 93 -14 0 -29 -3 -32 -7z
m-852 -143 c3 -5 -3 -10 -15 -10 -12 0 -18 5 -15 10 3 6 10 10 15 10 5 0 12
-4 15 -10z m40 -55 c46 -45 22 -118 -42 -131 -27 -5 -36 -2 -58 22 -36 39 -32
91 10 115 42 24 62 23 90 -6z"/>
<path d="M8025 8630 c-3 -5 -16 -10 -28 -10 -12 0 -51 -9 -87 -19 -36 -11
-110 -32 -165 -46 -55 -15 -109 -31 -120 -35 -11 -4 -50 -16 -88 -25 -37 -10
-70 -21 -73 -26 -3 -5 -17 -9 -31 -9 -15 0 -40 -4 -57 -10 -38 -12 -146 -39
-206 -51 -24 -5 -49 -14 -54 -19 -6 -6 -20 -10 -33 -10 -12 0 -32 -4 -45 -9
-13 -5 -50 -15 -83 -22 -33 -7 -64 -16 -69 -20 -9 -8 93 -91 140 -114 17 -8
37 -21 44 -30 22 -27 190 -135 210 -135 21 0 55 18 175 92 44 27 89 55 100 61
11 7 33 21 50 32 16 11 59 35 95 53 36 19 67 37 70 41 3 3 26 16 52 29 26 13
50 27 53 32 3 5 26 19 50 31 25 13 53 31 62 41 9 10 22 18 30 18 16 0 58 25
90 53 21 19 21 19 2 53 -10 19 -19 41 -19 49 0 17 -55 21 -65 5z m-465 -284
c-1 -36 -31 -64 -75 -68 -35 -2 -40 0 -40 19 0 12 -3 25 -7 29 -13 12 -10 20
17 47 25 24 27 25 65 10 29 -12 40 -22 40 -37z"/>
<path d="M10797 8591 l-24 -50 21 -19 c31 -27 73 -52 89 -52 8 0 20 -7 28 -16
7 -8 34 -26 60 -39 26 -13 53 -30 60 -37 8 -7 32 -22 54 -33 22 -11 42 -23 45
-26 3 -3 25 -16 50 -29 25 -14 52 -30 60 -36 8 -7 47 -29 87 -49 39 -20 79
-45 89 -56 9 -10 21 -19 25 -19 5 0 33 -16 63 -35 30 -19 59 -35 64 -35 5 0
15 -7 22 -15 8 -10 20 -13 33 -9 26 8 130 79 147 99 7 8 18 15 25 15 6 0 20 9
30 20 11 12 34 28 52 37 18 8 33 19 33 24 0 5 5 9 10 9 17 0 95 60 95 73 0 7
-16 13 -35 15 -19 2 -39 8 -45 13 -5 5 -21 9 -36 9 -15 0 -31 5 -34 10 -3 6
-15 10 -26 10 -11 0 -47 9 -81 21 -33 11 -81 25 -107 30 -172 38 -200 45 -265
68 -33 12 -69 21 -82 21 -13 0 -26 5 -29 10 -3 6 -21 10 -40 10 -19 0 -36 4
-39 8 -3 5 -36 16 -73 26 -37 9 -82 21 -99 26 -17 6 -42 10 -57 10 -15 0 -27
5 -27 10 0 6 -13 10 -29 10 -17 0 -33 5 -36 10 -3 6 -17 10 -30 10 -18 0 -29
-11 -48 -49z m645 -218 c27 -8 29 -51 3 -79 -12 -13 -29 -24 -37 -24 -20 0
-45 29 -53 61 -5 21 -2 30 17 43 12 9 30 13 38 10 8 -3 22 -8 32 -11z"/>
<path d="M8195 8371 c-3 -6 -30 -22 -60 -36 -30 -15 -59 -33 -66 -41 -6 -8
-17 -14 -24 -14 -7 0 -19 -7 -26 -16 -7 -9 -22 -20 -34 -25 -11 -5 -31 -17
-45 -27 -14 -9 -41 -26 -59 -37 -19 -11 -42 -28 -53 -37 -10 -10 -23 -18 -29
-18 -6 0 -31 -15 -57 -32 -26 -18 -67 -44 -92 -57 -25 -13 -57 -30 -71 -37
-15 -8 -32 -21 -39 -29 -7 -8 -36 -26 -66 -41 -30 -14 -54 -30 -54 -34 0 -4
-10 -10 -22 -14 l-23 -5 22 -23 c13 -12 42 -34 66 -48 24 -14 68 -41 98 -60
30 -20 71 -44 91 -53 20 -10 40 -22 44 -28 7 -12 94 68 94 86 0 6 12 22 26 36
15 13 45 47 68 75 75 93 190 228 233 274 24 25 43 49 43 53 0 5 21 31 48 59
65 69 86 108 58 108 -7 0 -19 7 -26 15 -14 17 -36 20 -45 6z m-360 -311 c11
19 35 11 35 -12 0 -13 5 -30 10 -38 6 -10 3 -20 -10 -32 -24 -23 -29 -22 -62
7 -32 27 -34 37 -13 55 8 7 12 17 8 24 -4 6 0 5 9 -2 11 -9 18 -10 23 -2z"/>
<path d="M10653 8361 c-34 -29 -28 -51 32 -111 30 -30 54 -59 55 -65 0 -5 19
-30 43 -55 43 -46 158 -181 233 -274 23 -28 53 -62 68 -75 14 -14 26 -30 26
-36 0 -6 19 -29 43 -52 44 -43 66 -45 96 -9 7 9 18 16 24 16 5 0 25 11 43 25
18 14 37 25 42 25 5 0 15 7 22 15 7 8 32 25 56 37 24 12 53 32 65 44 21 23 21
24 3 31 -10 4 -28 15 -38 25 -11 10 -25 18 -32 18 -6 0 -17 7 -24 15 -11 14
-68 48 -169 102 -25 12 -52 29 -60 37 -9 8 -32 22 -51 32 -19 11 -49 29 -67
42 -17 12 -35 22 -40 22 -6 0 -17 8 -26 18 -9 10 -37 28 -61 40 -24 12 -49 29
-56 37 -7 8 -18 15 -25 15 -7 0 -18 6 -24 14 -7 8 -36 26 -66 41 -30 14 -57
30 -60 36 -9 14 -28 10 -52 -10z m456 -285 c9 -11 8 -15 -5 -20 -15 -6 -16 -8
0 -24 23 -26 20 -35 -14 -50 -22 -10 -34 -10 -50 -2 -24 13 -24 13 -8 57 9 25
17 33 30 30 11 -3 18 0 18 9 0 18 14 18 29 0z"/>
<path d="M8997 8352 c-23 -26 -21 -41 9 -69 l26 -24 24 22 c27 25 31 54 10 75
-20 19 -50 18 -69 -4z"/>
<path d="M9833 8355 c-20 -22 -15 -55 10 -76 27 -22 37 -24 37 -4 0 8 6 15 14
15 8 0 18 9 21 21 14 43 -52 78 -82 44z"/>
<path d="M8342 8127 c-12 -13 -22 -27 -22 -33 -1 -5 -25 -34 -55 -64 -30 -30
-55 -60 -55 -66 0 -5 -14 -23 -31 -40 -17 -16 -54 -58 -82 -94 -29 -36 -71
-85 -94 -110 -24 -25 -43 -48 -43 -52 0 -3 -27 -35 -60 -70 l-60 -63 39 -35
c58 -53 170 -140 179 -140 5 0 21 -13 37 -30 27 -28 30 -29 47 -13 10 9 18 26
18 39 0 13 5 26 10 29 6 3 10 19 10 35 0 16 5 32 10 35 6 3 10 15 10 26 0 10
5 28 10 39 6 11 15 29 20 40 6 11 10 25 10 31 0 6 6 25 14 42 7 18 19 52 26
77 14 51 26 83 46 123 8 16 14 40 14 53 0 13 5 24 10 24 6 0 10 13 10 29 0 17
5 33 10 36 6 3 10 16 10 28 0 12 7 31 15 41 22 28 18 59 -8 84 l-23 22 -22
-23z m-184 -388 c18 -28 6 -59 -21 -59 -14 1 -30 14 -44 35 -11 18 -20 35 -18
37 2 2 19 4 37 5 24 2 37 -3 46 -18z"/>
<path d="M10512 8127 c-26 -27 -28 -55 -7 -83 8 -10 15 -29 15 -41 0 -12 5
-25 10 -28 6 -3 10 -17 10 -30 0 -13 5 -27 10 -30 6 -3 10 -17 10 -29 0 -13 7
-37 15 -52 8 -16 15 -37 15 -46 0 -9 5 -20 10 -23 6 -3 10 -13 10 -21 0 -8 9
-34 20 -56 11 -23 20 -52 20 -64 0 -12 7 -27 16 -35 8 -7 13 -21 11 -31 -3
-10 1 -25 9 -32 8 -8 14 -26 14 -40 0 -14 5 -28 10 -31 6 -3 10 -19 10 -35 0
-16 5 -32 10 -35 6 -3 10 -14 10 -24 0 -11 8 -29 18 -40 l17 -22 29 30 c17 17
35 31 40 31 6 0 28 16 48 35 20 19 40 35 45 35 4 0 34 24 66 53 l57 52 -50 53
c-27 29 -50 56 -50 60 0 4 -24 32 -53 62 -28 30 -75 84 -104 120 -28 36 -65
78 -82 94 -17 17 -31 35 -31 41 0 6 -20 31 -45 55 -25 24 -45 49 -45 55 0 6
-15 26 -33 43 l-33 32 -22 -23z m306 -385 c3 -20 -28 -62 -46 -62 -5 0 -16 6
-27 13 -25 19 -13 71 14 62 11 -3 22 -1 26 5 10 17 30 6 33 -18z"/>
<path d="M8480 7868 c0 -20 -4 -40 -10 -43 -5 -3 -10 -21 -10 -40 0 -19 -4
-36 -9 -39 -5 -3 -11 -20 -14 -38 -18 -102 -26 -133 -36 -136 -6 -2 -11 -17
-11 -33 0 -16 -4 -29 -10 -29 -5 0 -10 -11 -10 -24 0 -13 -7 -37 -15 -52 -8
-16 -15 -40 -15 -55 0 -14 -4 -29 -9 -35 -4 -5 -11 -24 -15 -42 l-6 -33 93 3
92 3 3 304 c1 196 -1 308 -8 315 -7 7 -10 -2 -10 -26z"/>
<path d="M10407 7890 c-4 -8 -6 -150 -5 -315 l3 -300 92 -3 93 -3 -6 33 c-4
18 -11 37 -15 42 -5 6 -9 21 -9 35 0 15 -7 39 -15 55 -8 15 -15 35 -15 42 0 8
-4 22 -9 32 -19 39 -41 112 -56 187 -9 44 -26 107 -36 130 -4 11 -10 34 -12
50 -2 21 -5 25 -10 15z"/>
<path d="M6276 4248 c34 -38 67 -115 274 -650 129 -334 237 -608 240 -608 3 0
113 278 244 618 132 339 246 632 253 650 l13 33 -146 -3 -147 -3 -106 -282
c-58 -156 -108 -283 -111 -283 -3 0 -53 127 -111 283 l-106 282 -168 3 -168 2
39 -42z"/>
<path d="M7510 4265 l23 -24 -231 -603 c-127 -332 -235 -615 -241 -630 -9 -24
5 -17 98 52 60 44 148 110 196 147 l88 68 126 322 c69 178 128 323 131 323 5
0 91 -269 91 -282 -1 -4 -31 -8 -67 -10 l-66 -3 -49 -128 c-27 -71 -49 -133
-49 -138 0 -5 72 -9 166 -9 l166 0 15 -40 16 -40 271 0 271 0 135 135 c74 74
138 135 142 135 5 0 8 -61 8 -135 l0 -135 140 0 140 0 2 183 3 182 183 3 182
2 0 -185 0 -185 101 0 c92 0 101 -2 94 -17 -19 -48 -79 -202 -90 -235 l-14
-37 108 79 c60 44 148 110 196 147 l88 68 126 322 c69 178 128 323 131 323 5
0 91 -269 91 -282 -1 -4 -31 -8 -67 -10 l-66 -3 -49 -128 c-27 -71 -49 -133
-49 -138 0 -5 72 -9 166 -9 l166 0 15 -40 16 -40 271 0 271 0 135 135 c74 74
138 135 142 135 5 0 8 -61 8 -135 l0 -135 143 0 142 0 110 110 c60 60 111 108
113 105 2 -2 -29 -88 -68 -192 -40 -103 -83 -216 -96 -250 l-24 -63 109 80
c59 44 148 110 196 147 l88 68 126 322 c69 178 128 323 131 323 5 0 91 -269
91 -282 -1 -4 -31 -8 -67 -10 l-66 -3 -49 -128 c-27 -71 -49 -133 -49 -138 0
-5 72 -9 166 -9 l166 0 15 -40 16 -40 145 0 c117 0 143 3 139 14 -3 7 -85 236
-183 510 l-177 496 -180 0 -180 0 23 -25 23 -24 -130 -338 -129 -338 -130 0
-129 0 -3 363 -2 362 -177 0 -177 0 37 -38 37 -38 -2 -325 -3 -324 -140 0
-140 0 -3 363 -2 362 -177 0 -177 0 37 -38 37 -38 0 -401 c0 -221 -4 -404 -8
-407 -4 -2 -79 195 -166 440 l-159 444 -180 0 -180 0 23 -25 23 -24 -133 -348
c-73 -191 -137 -352 -141 -358 -5 -5 -9 159 -9 373 l0 382 -145 0 -145 0 0
-180 0 -180 -185 0 -185 0 0 180 0 180 -177 0 -177 0 37 -38 37 -38 -2 -325
-3 -324 -140 0 -140 0 -3 363 -2 362 -177 0 -177 0 37 -38 37 -38 0 -401 c0
-221 -4 -404 -8 -407 -4 -2 -79 195 -166 440 l-159 444 -180 0 -180 0 23 -25z"/>
</g>
</svg>
